<?xml version="1.0" standalone="no"?><!DOCTYPE svg PUBLIC "-//W3C//DTD SVG 1.1//EN" "http://www.w3.org/Graphics/SVG/1.1/DTD/svg11.dtd"><svg t="1639972385329" class="icon" viewBox="0 0 1024 1024" version="1.1" xmlns="http://www.w3.org/2000/svg" p-id="4459" xmlns:xlink="http://www.w3.org/1999/xlink" width="200" height="200"><defs><style type="text/css"></style></defs><path d="M674.8 457.8c0-14.2-11.5-25.6-25.6-25.6-14.2 0-25.6 11.5-25.6 25.6 0 61.7-50.2 111.9-111.9 111.9-14.2 0-25.6 11.5-25.6 25.6s11.5 25.6 25.6 25.6c89.9 0 163.1-73.2 163.1-163.1z" p-id="4460" fill="#cdcdcd"></path><path d="M870.6 236.6h-80.4V175c0-30.3-24.7-55-55-55h-251c-14.2 0-25.6 11.5-25.6 25.6 0 14.2 11.5 25.6 25.6 25.6h251c2.1 0 3.8 1.7 3.8 3.8v300.4c0 125.3-101.9 227.2-227.2 227.2s-227.3-102-227.3-227.2V175c0-2.1 1.7-3.8 3.8-3.8h42.3c14.2 0 25.6-11.5 25.6-25.6 0-14.2-11.5-25.6-25.6-25.6h-42.3c-30.3 0-55 24.7-55 55v61.7h-80.4c-30.3 0-55 24.7-55 55v117.1c0 89.5 68.6 163.2 156 171.4 29.7 72.9 89.4 130.5 163.7 157.3-21.6 68.8-86.5 117.4-159.8 117.4-14.2 0-25.6 11.5-25.6 25.6v1.2c0 6.8 2.7 13.3 7.5 18.1 4.8 4.8 11.3 7.5 18.1 7.5h0.1l499-1.2c14.1 0 25.6-11.5 25.6-25.7s-11.5-25.6-25.6-25.6c-73.3 0-136.5-46.4-158.9-114.6 78-25.5 141-84.5 171.8-160 87.4-8.2 156-81.9 156-171.4V291.7c-0.2-30.4-24.9-55.1-55.2-55.1zM149 408.8V291.7c0-2.1 1.7-3.8 3.8-3.8h80.4v187.5c0 17 1.6 33.7 4.6 49.9-51.1-14.1-88.8-61-88.8-116.5z m466.9 446.3l-218.9 0.5c32.7-27 57.6-63.4 70.2-105.4 14.5 2.3 29.4 3.6 44.5 3.6 12.2 0 24.2-0.9 36-2.4 12.5 41.5 36.6 77.1 68.2 103.7z m258.4-446.3c0 55.5-37.7 102.4-88.8 116.5 2.9-16.2 4.6-32.9 4.6-49.9V287.9h80.4c2.1 0 3.8 1.7 3.8 3.8v117.1z" p-id="4461" fill="#cdcdcd"></path></svg>